<?xml version="1.0" encoding="UTF-8"?>
<svg width="102px" height="41px" viewBox="0 0 102 41" version="1.1" xmlns="http://www.w3.org/2000/svg" xmlns:xlink="http://www.w3.org/1999/xlink">
    <!-- Generator: Sketch 39.1 (31720) - http://www.bohemiancoding.com/sketch -->
    <title>logo</title>
    <desc>Created with Sketch.</desc>
    <defs></defs>
    <g id="Symbols" stroke="none" stroke-width="1" fill="none" fill-rule="evenodd">
        <g id="logo" fill="#FFFFFF">
            <g>
                <path d="M54.0630248,23.6488277 L52.5211863,16.4580073 L52.520713,16.4580073 C52.4927914,16.3137157 52.4572979,16.182678 52.4035844,16.0593925 C52.3482145,15.9338564 52.2729682,15.8090704 52.1468479,15.7080414 C51.962045,15.5604989 51.7360696,15.5034825 51.5200324,15.5044827 L51.0673717,15.5044827 C50.9374654,15.5047328 50.8092155,15.5209875 50.6821486,15.567751 C50.5560283,15.6137642 50.4301447,15.696288 50.3357319,15.814322 L50.3347854,15.8153222 C50.205589,15.9768688 50.121351,16.1671736 50.0617219,16.3759837 L50.0614853,16.3759837 L49.0125334,19.8669888 L48.8071443,20.6474635 L48.6098003,19.912752 L47.5757557,16.3792346 L47.5755191,16.3792346 C47.5426284,16.255699 47.5057152,16.1429166 47.4569707,16.0381364 C47.4058601,15.9293551 47.3433915,15.824825 47.243773,15.731048 C47.1398953,15.63402 47.0215836,15.5795043 46.9070578,15.5474951 C46.7918222,15.515736 46.6761133,15.5047328 46.5547254,15.5044827 L46.144657,15.5044827 C45.9314592,15.5032324 45.715422,15.5647501 45.5339318,15.686035 C45.3959803,15.7773113 45.3003844,15.9065985 45.2350764,16.0388866 C45.1709514,16.1694242 45.130962,16.3079641 45.1013841,16.4580073 L45.1011475,16.4580073 L43.5590723,23.6488277 L43.5597822,23.6490778 C43.5484243,23.6960913 43.5389593,23.747356 43.5387227,23.8106243 C43.5384861,23.8743926 43.5484243,23.9514148 43.5810783,24.0306876 C43.6049773,24.0899547 43.6423638,24.1484715 43.6873222,24.195235 C43.7552332,24.2665055 43.8347387,24.3080175 43.9017031,24.3290235 C43.969614,24.3505297 44.0275868,24.3552811 44.0794073,24.3557812 L44.8574253,24.3557812 C44.9099557,24.3552811 44.965089,24.3520301 45.0329999,24.3345251 C45.0994911,24.3162699 45.1877517,24.2835104 45.2760122,24.1919841 L45.2771953,24.1907337 C45.3664024,24.0914551 45.3959803,24.0131826 45.4281611,23.9339098 L45.4423585,23.896649 L46.3557251,19.2350569 L46.4288418,18.8371923 L46.551886,19.277319 L47.6699319,23.1369303 L47.6704051,23.1386808 C47.7262483,23.3254846 47.7925028,23.4910322 47.882893,23.6393249 L47.8836029,23.6403252 L47.8838395,23.6405753 C47.9666577,23.7768645 48.096564,23.8766433 48.2236308,23.927658 C48.3521173,23.9804232 48.4787109,23.9964278 48.6060143,23.9969279 L48.9739638,23.9969279 C49.1086026,23.9966778 49.2406385,23.9801731 49.3714912,23.931159 C49.5013975,23.8831451 49.6317771,23.79587 49.7268997,23.6703339 C49.8411888,23.521291 49.9275564,23.3494915 49.9807967,23.1659386 L49.9815066,23.1634379 L51.1277106,19.0807624 L51.1845003,18.8807048 L51.2382138,19.1612856 L52.1660144,23.8978994 L52.1806851,23.9364105 C52.2128659,24.0144329 52.2419706,24.0899547 52.3281015,24.1879829 L52.3314142,24.1914839 L52.334727,24.1947349 C52.4210945,24.2827602 52.5086452,24.3162699 52.5748998,24.3345251 C52.6430473,24.3520301 52.697944,24.3552811 52.750711,24.3557812 L53.5429264,24.3557812 C53.5888314,24.3555312 53.6394688,24.35153 53.6981514,24.3357755 C53.7419267,24.323772 53.7901979,24.3047665 53.8394156,24.2737576 C53.9132421,24.2282445 53.9863588,24.1492218 54.0280045,24.0601961 C54.0708334,23.9714206 54.083611,23.8821449 54.0833744,23.8108743 C54.0831378,23.747356 54.0736729,23.6960913 54.0623149,23.6490778 L54.0630248,23.6488277" id="Fill-2"></path>
                <path d="M65.1429179,15.6542572 C65.0719309,15.5854874 64.9933719,15.5482267 64.9273539,15.5287211 C64.8608627,15.5092154 64.8035999,15.5047141 64.7517793,15.5044641 L64.0161169,15.5044641 C63.9567245,15.5049642 63.8949657,15.5087153 63.8185363,15.5307216 C63.78044,15.5422249 63.7380844,15.5584796 63.6919428,15.5864877 C63.6462745,15.6142457 63.5961103,15.6547573 63.5528082,15.7117738 L63.5520983,15.712524 C63.490103,15.796048 63.4602884,15.8670685 63.4314203,15.9410898 L63.4285809,15.9480918 L63.4262146,15.9550938 C63.2653107,16.4249791 63.10488,16.8991156 62.9442126,17.3782536 L62.9444492,17.3780035 C62.7833087,17.8578917 62.6366021,18.3032699 62.504093,18.7138881 C62.3715838,19.123256 62.2606074,19.4703559 62.1706905,19.7559382 L62.1706905,19.7556881 C62.1262053,19.8962285 62.0897653,20.0097612 62.0616071,20.0945356 C62.0339221,20.1780597 62.0123894,20.2375768 62.0067104,20.2503305 L62.0045808,20.2560822 L62.0024512,20.2613337 C61.9854143,20.3070968 61.970507,20.3541104 61.9487377,20.4236304 C61.9276782,20.4921501 61.9018862,20.578675 61.8706519,20.6849556 L61.8708886,20.6844555 C61.8098397,20.8920153 61.7395625,21.1275831 61.6598204,21.3904088 L61.660057,21.3901587 C61.6406539,21.4541771 61.6212508,21.5194459 61.6018477,21.5834643 C61.532517,21.335643 61.4688653,21.1018257 61.4123123,20.8850132 L61.4097094,20.8755105 L61.4120756,20.8847632 C61.3808414,20.7652288 61.3536297,20.6649499 61.3299673,20.5816759 C61.3058317,20.4979018 61.286192,20.4328831 61.266079,20.3756166 L61.2672621,20.3791176 C61.1955652,20.1710577 61.0976031,19.8609684 60.9762152,19.4558518 L60.9762152,19.4556017 C60.8526978,19.0444833 60.719952,18.6158599 60.5777413,18.1697315 C60.4364771,17.7273541 60.3025482,17.3022317 60.1754814,16.8946143 C60.0484146,16.4867469 59.9518722,16.1736567 59.8870374,15.9575945 L59.8820683,15.9405896 L59.8754428,15.9235847 C59.843262,15.8458123 59.814394,15.7700405 59.7280264,15.6722624 L59.7249503,15.6687614 L59.7216376,15.6652604 C59.6205994,15.5647314 59.5318656,15.5402244 59.4665575,15.5229694 C59.3993564,15.5074649 59.3454063,15.5047141 59.2914561,15.5044641 L58.5134381,15.5044641 C58.4675332,15.5047141 58.4166591,15.5087153 58.3582131,15.5244698 C58.3144378,15.5362232 58.2661666,15.5552287 58.2169489,15.5864877 C58.1428858,15.6320008 58.0697691,15.7110235 58.02836,15.8000492 C57.9852945,15.8888247 57.9725169,15.9781004 57.9727535,16.049371 C57.9732268,16.1266432 57.9857678,16.1879108 58.0009117,16.2419264 L58.0025681,16.2479281 L60.2677645,23.4600046 L60.2680012,23.4602547 C60.308937,23.5890418 60.3543687,23.7033247 60.4199134,23.8126062 C60.4856948,23.9193869 60.5751384,24.0329196 60.7287071,24.1069409 C60.762071,24.1226954 60.7975645,24.1296975 60.8321115,24.1414508 L60.5943049,24.8278985 L60.5917021,24.8371511 C60.5342026,25.0282062 60.4710241,25.1689967 60.4175472,25.253271 C60.3550786,25.3522995 60.296396,25.4140673 60.2500178,25.4490773 C60.2012734,25.4853378 60.1520557,25.5078443 60.0869842,25.5215982 C59.9961208,25.5398535 59.8863275,25.5508566 59.7583142,25.5508566 C59.6631916,25.5508566 59.5772973,25.5443548 59.5011045,25.5328515 C59.4275146,25.5220984 59.2853039,25.4918396 59.0941121,25.4435757 L59.0941121,25.444326 C59.0361394,25.4263208 58.9743807,25.4118166 58.8970048,25.4113165 C58.85039,25.4113165 58.7978595,25.4170681 58.7420164,25.4335729 C58.6745787,25.4538287 58.6137665,25.4893389 58.5671517,25.5288503 C58.4961646,25.5893677 58.4549921,25.6538863 58.4261241,25.7099024 C58.3974926,25.7666688 58.3802191,25.8179335 58.3667316,25.8671977 L58.3660217,25.8704487 L58.2242843,26.4248583 C58.2105601,26.4773734 58.2013318,26.5361403 58.2013318,26.6001588 C58.2010952,26.6744301 58.2148193,26.7567038 58.2453437,26.8327257 C58.2905388,26.9480089 58.3705176,27.038785 58.4481301,27.0955514 C58.5224298,27.1505672 58.5948366,27.181076 58.6648772,27.2035825 L58.6646405,27.2043327 C58.66748,27.2050829 58.6698462,27.2055831 58.6726857,27.2065834 C58.6743421,27.2070835 58.6759985,27.2078337 58.6776548,27.2083339 L58.6776548,27.2078337 C58.9336814,27.2933583 59.1759839,27.3486243 59.4085847,27.3666294 C59.6087682,27.3821339 59.7805568,27.3903863 59.9279732,27.3903863 C60.2138144,27.3903863 60.4838018,27.3526254 60.7350959,27.271352 C60.98639,27.1900786 61.2180444,27.0642924 61.419411,26.8959939 C61.629296,26.7201933 61.8053439,26.4916275 61.9589125,26.2207995 C62.1122445,25.9494714 62.2435705,25.6338805 62.3597526,25.2720264 L65.2761369,16.2496786 L65.2785032,16.2414263 C65.2931738,16.1889111 65.3054782,16.1283937 65.3057149,16.0533721 C65.3059515,15.9851025 65.2941203,15.9025787 65.2576803,15.8200549 C65.2307052,15.7582871 65.190006,15.6997703 65.1429179,15.6542572" id="Fill-6"></path>
                <path d="M79.3601993,15.8293076 C79.3360637,15.7700405 79.2986772,15.7115237 79.2539554,15.6647602 C79.1858078,15.5934897 79.1063023,15.5519777 79.0393379,15.5309717 C78.9714269,15.5094655 78.9134542,15.5047141 78.8616337,15.5044641 L78.0836157,15.5044641 C78.0313219,15.5047141 77.975952,15.5079651 77.9080411,15.5254701 C77.8417865,15.5437254 77.7535259,15.5764848 77.6652654,15.6680112 L77.6638456,15.6692615 C77.5746386,15.7685401 77.5450607,15.8468126 77.5128799,15.9260855 L77.4989191,15.9633462 L76.5853159,20.6249384 L76.5121992,21.0228029 L76.3893916,20.5834264 L75.2708725,16.7230649 L75.2706359,16.7213144 C75.2147927,16.5345106 75.1487748,16.368963 75.058148,16.2206703 L75.0572015,16.2194199 C74.9743833,16.0831307 74.8447136,15.9833519 74.7176468,15.9323373 C74.5891603,15.8795721 74.4623301,15.8635675 74.3350267,15.8630673 L73.9673138,15.8630673 C73.8324384,15.8633174 73.7006391,15.8798221 73.5695497,15.9288363 C73.4396434,15.9768501 73.3092639,16.0641252 73.2141413,16.1896613 C73.0998521,16.3384542 73.013248,16.5105037 72.9604809,16.6940566 L72.959771,16.695557 L71.8133303,20.7794829 L71.8138036,20.7779824 L71.7567773,20.9792904 L71.7025905,20.6987096 L70.7750265,15.9620958 L70.7603559,15.9235847 C70.7279385,15.8455623 70.699307,15.7700405 70.6129395,15.6720123 L70.6096267,15.6685113 L70.6065506,15.6652604 C70.5199464,15.577235 70.4323958,15.5437254 70.3661412,15.5254701 C70.2982302,15.5079651 70.2428604,15.5047141 70.1905666,15.5044641 L69.3981146,15.5044641 C69.3522096,15.5044641 69.3015722,15.5084652 69.2431262,15.5242198 C69.1991142,15.5362232 69.150843,15.5552287 69.1016254,15.5862376 C69.0277988,15.6317507 68.9546822,15.7107735 68.9127998,15.7997991 C68.8702076,15.8888247 68.8574299,15.9778504 68.8574299,16.0491209 C68.8579032,16.1128892 68.8673681,16.164154 68.878726,16.2109175 L68.8780162,16.2111675 L70.4198547,23.4019879 L70.4200913,23.4019879 C70.4484862,23.5462795 70.4837431,23.6773172 70.5374566,23.8008528 C70.5928265,23.9261388 70.6680727,24.0509248 70.794193,24.1519539 C70.9792326,24.2994963 71.205208,24.3565128 71.4210086,24.3555125 L71.8736693,24.3555125 C72.0038122,24.3552624 72.1318255,24.3390077 72.2588923,24.2922443 C72.3850126,24.246231 72.5108963,24.1637072 72.6055457,24.0456733 L72.6072021,24.0436727 L72.6062556,24.044923 C72.735452,23.8831265 72.81969,23.6928217 72.8793191,23.4840115 L72.8795557,23.4840115 L73.9287442,19.9930064 L74.1338967,19.2125317 L74.3312407,19.9472432 L75.3652852,23.4807606 L75.3657585,23.4807606 C75.3984125,23.6042962 75.4353258,23.7170787 75.4840702,23.8218588 C75.5354175,23.9308902 75.5976495,24.0351702 75.697268,24.1291973 C75.8013823,24.2259752 75.919694,24.2807409 76.0339832,24.3125001 C76.1492188,24.3442592 76.2649277,24.3552624 76.3863155,24.3555125 L76.7966206,24.3555125 C77.0095817,24.3567628 77.225619,24.2952451 77.4073458,24.1739602 C77.5452973,24.0826839 77.6406565,23.9533967 77.7059646,23.8211086 C77.7700896,23.690571 77.8100789,23.5520311 77.8396569,23.4019879 L77.8401301,23.4019879 L79.3819687,16.2111675 L79.3812588,16.2109175 C79.3926167,16.164154 79.4020817,16.1131393 79.4023183,16.049371 C79.4023183,15.9856026 79.3923801,15.9085804 79.3601993,15.8293076" id="Fill-11"></path>
                <path d="M86.7047552,17.0941722 C87.065606,17.0939222 87.3412723,17.1569403 87.5395628,17.2582195 C87.7579663,17.3700017 87.9086954,17.5052906 88.0191986,17.6703381 C88.1401132,17.8518904 88.2293202,18.0654519 88.2846901,18.3230261 C88.3135582,18.4573147 88.3350909,18.5956045 88.3499982,18.7376454 L85.049574,18.7376454 C85.0751294,18.5991055 85.1073102,18.4658172 85.1480094,18.3392807 C85.2322473,18.0769552 85.3462999,17.8598927 85.4901669,17.6765899 L85.4906402,17.6760898 C85.6311945,17.4970382 85.7989606,17.3574981 86.0074258,17.249467 C86.2024036,17.148938 86.4286156,17.0944223 86.7047552,17.0941722 L86.7047552,17.0941722 Z M90.0231628,17.5758109 C89.8845014,17.1129276 89.6682276,16.6990585 89.3767074,16.3504581 C89.0795084,15.9946057 88.6999643,15.7207768 88.2593714,15.533973 C87.8076572,15.3421678 87.2906349,15.2543925 86.7118539,15.2543925 C86.1886794,15.2541425 85.6950829,15.3546714 85.2457349,15.5609808 C84.7954404,15.7667901 84.4000426,16.0753789 84.0732656,16.4722432 C83.742466,16.8733587 83.4918817,17.3612491 83.3167804,17.9221606 C83.1390761,18.4918247 83.0548382,19.1310087 83.0548382,19.8367119 C83.0548382,20.5781754 83.1317408,21.2326138 83.2961941,21.8032781 C83.4606474,22.3729421 83.7157275,22.8610827 84.0690064,23.2429426 C84.4095075,23.6122989 84.8202859,23.8923796 85.2843045,24.0749322 C85.7485598,24.2577348 86.2641623,24.3447598 86.8249599,24.3445098 C87.2120759,24.3445098 87.6072371,24.303498 88.0090238,24.2227247 C88.4295037,24.1382004 88.8279776,23.9761537 89.1961637,23.7418362 C89.2692804,23.7023249 89.3466563,23.6448083 89.4110178,23.5542822 C89.4838979,23.4542534 89.5238872,23.3162137 89.5217576,23.1989299 C89.5210478,23.0696427 89.4865007,22.9673633 89.4474579,22.8820887 L89.4460381,22.8785877 L89.1900115,22.3496854 L89.1911946,22.3526863 C89.152625,22.2714129 89.0915762,22.181637 88.9969268,22.1123671 C88.9036971,22.0423469 88.7813628,22.0063366 88.6777217,22.007837 C88.551838,22.0088373 88.4538759,22.0465982 88.3715309,22.0893605 L88.3646689,22.0928615 L88.3578068,22.0968626 C88.1900407,22.1933904 87.9699809,22.282166 87.6988104,22.3544368 C87.4354485,22.4249571 87.1668808,22.4602172 86.8893215,22.4602172 C86.5987479,22.4602172 86.335386,22.4169548 86.0930835,22.3339309 C85.8656884,22.2551582 85.6782826,22.1343734 85.5116997,21.9605734 C85.3526887,21.7940254 85.2163936,21.5647094 85.1101496,21.2528696 L85.1101496,21.2526195 C85.0436584,21.0580635 84.9982267,20.8202451 84.9731446,20.5474165 L88.847854,20.5474165 C89.1798367,20.5486669 89.5011714,20.458891 89.7654798,20.264335 C89.9460235,20.1330472 90.0671747,19.9367407 90.1341392,19.7321818 C90.2020501,19.5256223 90.2268956,19.3038084 90.2273688,19.0594881 C90.2273688,18.531086 90.1608776,18.0349431 90.0233994,17.5763111 L90.0231628,17.5758109 L90.0231628,17.5758109 Z" id="Fill-14"></path>
                <path d="M98.1587509,22.6340168 C98.0134641,22.6480208 97.8866339,22.6547728 97.78039,22.6545227 C97.4704132,22.6545227 97.1985329,22.61051 96.960253,22.5277362 C96.741613,22.4512142 96.5674581,22.3309296 96.4117598,22.1486271 C96.2600842,21.9700757 96.1285215,21.7185032 96.0291397,21.3771549 C95.9328339,21.0483103 95.8779373,20.6121847 95.8784105,20.0760303 C95.8781739,19.5518794 95.9344903,19.1122528 96.0362384,18.7594012 L96.036475,18.7591512 C96.1410626,18.3962967 96.2818536,18.1147156 96.4500928,17.9016543 C96.6235378,17.6828413 96.8140197,17.532548 97.0376289,17.4312688 C97.2669171,17.3282392 97.5243634,17.2737235 97.8229822,17.2734734 C98.01796,17.2734734 98.2496143,17.289478 98.5148692,17.3224875 C98.6838184,17.3437436 98.8918104,17.3912573 99.1310368,17.4652786 L99.1310368,22.4632176 C99.1019321,22.47147 99.0754302,22.4802225 99.0441959,22.4879748 C98.9012754,22.5247354 98.7562252,22.5544939 98.6090454,22.5772505 C98.4561866,22.6010073 98.3061673,22.6200128 98.1587509,22.6340168 L98.1587509,22.6340168 Z M101.000599,12.9309731 C100.978356,12.8489495 100.934344,12.7419187 100.833306,12.6496421 L100.83236,12.6488919 L100.832123,12.6486418 C100.754037,12.5793719 100.672875,12.5456121 100.604018,12.5271068 C100.534451,12.5086015 100.472928,12.5038501 100.414009,12.5036001 L99.7583256,12.5036001 C99.6979866,12.5038501 99.6369377,12.5078513 99.5668972,12.5246061 C99.4978031,12.5423612 99.4142751,12.5716196 99.3262511,12.6486418 L99.3253046,12.6496421 C99.2235565,12.7421687 99.1797812,12.8496997 99.1577752,12.9317233 C99.1360059,13.0159976 99.13151,13.0862678 99.1310368,13.1545375 L99.1310368,15.5554788 C98.9661102,15.5194684 98.8021301,15.4917104 98.6390966,15.4737052 C98.3111364,15.4374448 98.0167768,15.4189394 97.7522318,15.4189394 C97.1147682,15.4186894 96.5388266,15.5444756 96.042154,15.8125528 C95.5648844,16.070377 95.1590752,16.4227285 94.8419997,16.8608546 C94.5275271,17.2942294 94.2980024,17.7968741 94.1529522,18.355535 C94.0102682,18.9051932 93.9395178,19.4801087 93.9395178,20.0760303 C93.9397544,20.7247171 94.0010399,21.3151371 94.1295265,21.8480405 C94.2591961,22.3886962 94.4728671,22.8678341 94.7743254,23.2679493 C95.0783866,23.6733161 95.4770971,23.9859061 95.9449017,24.1959665 C96.4221713,24.4105283 96.9720842,24.5090567 97.5896715,24.5090567 C98.0335771,24.5090567 98.5136861,24.4750469 99.0314183,24.4085277 C99.5728128,24.3390077 100.101666,24.1862137 100.614429,23.9531466 L100.614666,23.9533967 C100.615612,23.9531466 100.616559,23.9523964 100.617742,23.9518963 C100.620108,23.9506459 100.623184,23.9496456 100.625787,23.9483953 L100.625551,23.9478951 C100.738183,23.8991311 100.854602,23.8063544 100.926772,23.6813184 C101.002492,23.5527813 101.027811,23.4117407 101.027337,23.2904558 L101.027337,13.1545375 C101.027101,13.0860177 101.022368,13.0152474 101.000599,12.9309731 L101.000599,12.9309731 Z" id="Fill-15"></path>
                <path d="M32.4642669,27.3038614 C32.4645035,27.5474315 32.4216747,27.8385153 32.334124,28.1423528 C32.2042177,28.598234 31.9735098,29.0803729 31.6900349,29.4862397 C31.4079797,29.8938571 31.0717378,30.2217015 30.7709894,30.4030037 L18.9121309,37.638837 C18.7128939,37.7608722 18.4528447,37.8674028 18.1601415,37.9389234 C17.8676749,38.0111942 17.5435007,38.0494552 17.2193266,38.0494552 C16.8949158,38.0494552 16.5707416,38.0111942 16.278275,37.9389234 C15.9855718,37.8674028 15.7257592,37.7608722 15.5262856,37.638837 L3.66719055,30.4030037 C3.46724371,30.2814687 3.25025999,30.0969155 3.04510744,29.8645987 C2.73655044,29.5177488 2.45686149,29.0656186 2.26590635,28.6032355 C2.07305823,28.1413525 1.97249325,27.6694666 1.97414962,27.3038614 L1.97414962,12.8319446 C1.97367637,12.5883745 2.01650522,12.2972907 2.10429252,11.9937032 C2.23419881,11.5375719 2.46490669,11.0556832 2.74838161,10.6495662 C3.03043679,10.2421989 3.36667874,9.91410448 3.66719055,9.73305235 L15.5262856,2.49696893 C15.7257592,2.37493379 15.9855718,2.26865319 16.278275,2.19688253 C16.5707416,2.12461172 16.8949158,2.0863507 17.2193266,2.08660078 C17.5435007,2.0863507 17.8676749,2.12461172 18.1601415,2.19688253 C18.4528447,2.26865319 18.7128939,2.37493379 18.9121309,2.49696893 L30.771226,9.73305235 C30.9709362,9.85433727 31.1881565,10.0391405 31.3930725,10.2712073 C31.7018661,10.6183072 31.981555,11.0701873 32.1722736,11.5328205 C32.3653583,11.9947035 32.4659233,12.4665894 32.4642669,12.8319446 L32.4642669,27.3038614 L32.4642669,27.3038614 Z M34.2233258,11.3877788 C34.0203029,10.683576 33.6949456,10.0101321 33.2801446,9.41321026 C32.863924,8.81778883 32.359916,8.29513835 31.7581825,7.92603207 L19.899324,0.690198723 C19.4973007,0.445378234 19.0604938,0.276579633 18.6083063,0.164797449 C18.1558823,0.0535154082 17.6876044,0 17.2193266,0 C16.7508121,0 16.2825343,0.0535154082 15.8301102,0.164797449 C15.3779227,0.276579633 14.9408792,0.445378234 14.5390925,0.690198723 L2.67999743,7.92603207 C2.2784474,8.17160278 1.92185583,8.48694357 1.60407051,8.84504668 C1.12869395,9.38295155 0.739448346,10.0176343 0.457629792,10.6955795 C0.177704226,11.3742749 0.00165636429,12.0967329 0,12.8319446 L0,27.3038614 C0.000473246941,27.7942526 0.08045198,28.278392 0.215090735,28.7480272 C0.418113673,29.4522299 0.743470945,30.1256738 1.15827189,30.7225957 C1.57449257,31.3182672 2.07850057,31.8406676 2.67999743,32.2097739 L14.5390925,39.4458573 C14.9408792,39.6904277 15.3779227,39.8594764 15.8301102,39.9710085 C16.2825343,40.0822905 16.7508121,40.135806 17.2193266,40.136056 C17.6876044,40.135806 18.1558823,40.0822905 18.6083063,39.9710085 C19.0604938,39.8594764 19.4973007,39.6904277 19.899324,39.4458573 L31.7581825,32.2097739 C32.1597325,31.9644532 32.5165607,31.6488624 32.834346,31.2907593 C33.3097226,30.7531045 33.6989682,30.1184217 33.9807867,29.4404765 C34.2607123,28.7617811 34.4367602,28.039073 34.4384165,27.3038614 L34.4384165,12.8319446 C34.4381799,12.3418035 34.3579646,11.857414 34.2233258,11.3877788 L34.2233258,11.3877788 Z" id="Fill-25"></path>
                <path d="M21.9179163,30.9856736 C21.8599435,31.0139317 21.8031539,31.028686 21.7312204,31.028936 C21.6590502,31.028686 21.6022606,31.0139317 21.5445245,30.9856736 C21.45934,30.9444117 21.3715527,30.8636384 21.3074277,30.754357 C21.2447225,30.6493267 21.2120685,30.5245408 21.2106487,30.4165097 C21.2151446,30.3960038 21.2267391,30.3529914 21.2485085,30.2972253 C21.2989093,30.1619364 21.4020771,29.9601283 21.5281974,29.754069 C21.5916125,29.6495389 21.6611798,29.5442586 21.7319302,29.4402286 C21.888575,29.6705449 22.0371745,29.913865 22.1334803,30.1129223 C22.1848276,30.2177025 22.2207943,30.3092288 22.2387777,30.3679957 C22.246113,30.3920026 22.2501356,30.4082573 22.2520286,30.4182602 C22.2508455,30.5625517 22.1862473,30.7381023 22.0837893,30.8538856 C22.0322054,30.9136528 21.9749425,30.9576655 21.9179163,30.9856736 L21.9179163,30.9856736 Z M17.319849,21.0530638 C17.2950035,21.0238053 17.2711046,20.9997984 17.2441295,20.9742911 L17.2446027,20.9737909 L17.2408168,20.9702899 C17.2183375,20.9485337 17.106178,20.8264985 17.0193372,20.6734545 C16.9757985,20.5974326 16.9379387,20.5146587 16.9135665,20.4361361 C16.8889577,20.3568633 16.8771265,20.2833421 16.8768899,20.2120716 C16.8768899,20.1352995 16.892507,20.050275 16.9258709,19.956498 C16.9743787,19.8169579 17.0668985,19.6659144 17.1471139,19.5626346 C17.1868666,19.5108697 17.2223601,19.4703581 17.2443661,19.4471014 L17.2656622,19.424845 L17.2666087,19.4235946 L17.2666087,19.4235946 C17.287195,19.4035888 17.3094376,19.3803321 17.3302604,19.3565753 C17.3508467,19.3803321 17.3728527,19.4035888 17.3936755,19.4235946 L17.3934389,19.4235946 L17.4133153,19.4441005 C17.4589836,19.4918643 17.5704333,19.6239023 17.6525416,19.775946 C17.6941873,19.8519679 17.7287344,19.9317409 17.7507403,20.0062624 C17.772983,20.0807838 17.7831578,20.1488034 17.7831578,20.2120716 C17.7831578,20.2928449 17.7675406,20.3776193 17.7355964,20.4688956 C17.6892182,20.6046847 17.6016676,20.7479759 17.5261847,20.845504 C17.4885615,20.8945181 17.4554343,20.9320289 17.4353213,20.9535351 L17.4163914,20.9730407 L17.4168646,20.9735409 C17.3896529,20.9992983 17.3652807,21.0238053 17.3404353,21.0530638 L17.3302604,21.0650672 L17.319849,21.0530638 L17.319849,21.0530638 Z M17.4171013,20.9732908 L17.4171013,20.9732908 L17.416628,20.9730407 L17.4171013,20.9732908 L17.4171013,20.9732908 Z M13.1157598,30.9856736 C13.0577871,31.0139317 13.001234,31.028686 12.9290639,31.028936 C12.8571304,31.028686 12.8003407,31.0139317 12.742368,30.9856736 C12.6571835,30.9444117 12.5693962,30.8636384 12.5052713,30.754357 C12.4428027,30.6493267 12.409912,30.5245408 12.4084923,30.4165097 C12.4132247,30.3960038 12.4248193,30.3529914 12.446352,30.2972253 C12.4969894,30.1619364 12.5999206,29.9601283 12.726041,29.754069 C12.789456,29.6495389 12.8590233,29.5442586 12.9297738,29.4402286 C13.0864185,29.6705449 13.235018,29.913865 13.3315604,30.1129223 C13.3826711,30.2177025 13.4188745,30.3092288 13.4366212,30.3679957 C13.4441932,30.3920026 13.4479792,30.4082573 13.4498721,30.4182602 C13.4489257,30.5625517 13.3843274,30.7381023 13.2818695,30.8538856 C13.2300489,30.9136528 13.1727861,30.9576655 13.1157598,30.9856736 L13.1157598,30.9856736 Z M12.742368,9.13163132 C12.8003407,9.10362326 12.8571304,9.08886901 12.9290639,9.08836887 C13.001234,9.08886901 13.0577871,9.10362326 13.1157598,9.13163132 C13.2009443,9.17314327 13.2887316,9.25391653 13.3528565,9.36294792 C13.4153251,9.46822824 13.4482158,9.59301416 13.4496355,9.70104527 C13.4449031,9.7213011 13.4335451,9.76456356 13.4117758,9.82007954 C13.3611383,9.95561857 13.2582071,10.1574267 13.1320868,10.363486 C13.0686717,10.467766 12.9991044,10.5730463 12.9285906,10.6773264 C12.7717093,10.44701 12.6231097,10.2034399 12.526804,10.0043826 C12.4754567,9.89985251 12.4392533,9.80807609 12.4215065,9.74930917 C12.4141712,9.72555233 12.4103852,9.70929765 12.4082556,9.69904469 C12.4094387,9.55475315 12.474037,9.3792026 12.5762583,9.26366934 C12.6278422,9.20365206 12.6853417,9.15988946 12.742368,9.13163132 L12.742368,9.13163132 Z M21.5445245,9.13163132 C21.6022606,9.10362326 21.6590502,9.08886901 21.7312204,9.08836887 C21.8031539,9.08886901 21.8599435,9.10362326 21.9179163,9.13163132 C22.0031007,9.17314327 22.090888,9.25391653 22.155013,9.36294792 C22.2174816,9.46822824 22.2503723,9.59301416 22.2515554,9.7007952 C22.2470595,9.7213011 22.235465,9.76456356 22.2139323,9.82007954 C22.1632948,9.95561857 22.0603636,10.1574267 21.9342433,10.363486 C21.8708282,10.467766 21.8012609,10.5730463 21.7305105,10.6773264 C21.5738658,10.44701 21.4252662,10.2034399 21.3287238,10.0043826 C21.2776132,9.89985251 21.2414098,9.80807609 21.223663,9.74930917 C21.2160911,9.72555233 21.2123051,9.70929765 21.2101755,9.69904469 C21.2113586,9.55475315 21.2759568,9.3792026 21.3784148,9.26366934 C21.4299987,9.20365206 21.4872616,9.15988946 21.5445245,9.13163132 L21.5445245,9.13163132 Z M26.1011826,20.8727618 L23.1445724,20.8727618 C22.5993919,20.8727618 22.1573792,21.3398963 22.1573792,21.9160622 C22.1573792,22.4922281 22.5993919,22.9591125 23.1445724,22.9591125 L24.0674039,22.9591125 L21.6801097,26.162785 L18.6593745,22.6227657 L18.7783961,22.4834756 C18.8697327,22.3919493 19.0498032,22.1981435 19.2400485,21.9020582 C19.3621462,21.7107531 19.4880299,21.4756854 19.5871751,21.1936042 C19.6858471,20.9120231 19.757544,20.5796775 19.757544,20.2120716 C19.7573074,19.8399645 19.6832442,19.5053681 19.582206,19.2215364 C19.4293472,18.7951637 19.2194622,18.4755716 19.0476736,18.2500067 C18.9312548,18.098213 18.833766,17.9931828 18.7708241,17.9294144 L18.6309797,17.7571148 L21.6779801,14.0045343 L24.0820746,17.4047633 L23.1445724,17.4047633 C22.5993919,17.4047633 22.1573792,17.8718978 22.1573792,18.4480637 C22.1573792,19.0242296 22.5993919,19.4913641 23.1445724,19.4913641 L26.0522016,19.4913641 C26.4267765,19.4913641 26.7668044,19.2695502 26.9345705,18.9154483 C27.1025732,18.5615964 27.0670796,18.1407252 26.8429972,17.8236339 L22.9907671,12.3755653 C23.0837601,12.2517797 23.1826687,12.1157405 23.2829971,11.9709488 C23.4902793,11.6701122 23.7030038,11.3347657 23.8802347,10.9756623 C23.9689685,10.7953603 24.0491839,10.6085566 24.1130722,10.4047479 C24.1755408,10.2006891 24.2261782,9.97887526 24.2273614,9.71154829 C24.2249951,9.01134669 23.973701,8.36065934 23.5428097,7.85801462 C23.3265358,7.60694233 23.0612809,7.39338084 22.7534338,7.24133707 C22.4462965,7.08904322 22.0960938,7.00151802 21.7312204,7.00201816 C21.366347,7.00151802 21.0159076,7.08904322 20.709007,7.24133707 C20.2468813,7.47015295 19.8822446,7.83450785 19.6309504,8.26113069 C19.3798929,8.68900388 19.2355526,9.18639709 19.2348428,9.71154829 C19.2362625,9.97887526 19.2866633,10.2006891 19.3493685,10.404998 C19.461528,10.7603503 19.6212489,11.0714398 19.7942206,11.3702759 C20.0022127,11.7261283 20.2322107,12.0544729 20.4366534,12.329302 L17.3302604,16.1551535 L14.2231576,12.3288019 C14.3062125,12.2172697 14.3928167,12.0984855 14.4808406,11.9709488 C14.6883594,11.6701122 14.9008473,11.3347657 15.0783149,10.9756623 C15.1668121,10.7953603 15.2470274,10.6085566 15.3109157,10.4047479 C15.373621,10.2006891 15.4240218,9.97887526 15.4254415,9.71154829 C15.4228386,9.01134669 15.1717811,8.36065934 14.7408898,7.85801462 C14.5243793,7.60694233 14.2591244,7.39338084 13.9512773,7.24133707 C13.64414,7.08904322 13.2939373,7.00151802 12.9290639,7.00201816 C12.5641905,7.00151802 12.2137511,7.08904322 11.9068505,7.24133707 C11.4447249,7.47015295 11.0800881,7.83450785 10.828794,8.26113069 C10.5777365,8.68900388 10.4333961,9.18639709 10.4329229,9.71154829 C10.434106,9.97887526 10.4845068,10.2006891 10.547212,10.404998 C10.6596082,10.7603503 10.8190924,11.0714398 10.9920642,11.3702759 C11.2125972,11.7468843 11.4563194,12.0917336 11.6695172,12.3755653 L7.81728705,17.8236339 C7.59320463,18.1407252 7.55771111,18.5615964 7.72547715,18.9154483 C7.89347981,19.2695502 8.23350774,19.4913641 8.60808269,19.4913641 L11.5157119,19.4913641 C12.0608924,19.4913641 12.502905,19.0242296 12.502905,18.4480637 C12.502905,17.8718978 12.0608924,17.4047633 11.5157119,17.4047633 L10.5779731,17.4047633 L12.9823042,14.0045343 L16.0293046,17.7571148 L15.8918264,17.9264135 C15.7976502,18.021691 15.6194727,18.2169972 15.4315937,18.5073308 C15.3078396,18.7006364 15.1795897,18.9372046 15.0780782,19.2215364 C14.97704,19.5053681 14.9027403,19.8399645 14.9027403,20.2120716 C14.9027403,20.5796775 14.9744372,20.9120231 15.0731092,21.1936042 C15.2226552,21.6169761 15.4289909,21.9338173 15.5984133,22.1568816 C15.7179081,22.3126764 15.8187097,22.4199573 15.8807051,22.4819752 L16.0009098,22.6227657 L12.9801746,26.162785 L10.5928804,22.9591125 L11.5157119,22.9591125 C12.0608924,22.9591125 12.502905,22.4922281 12.502905,21.9160622 C12.502905,21.3398963 12.0608924,20.8727618 11.5157119,20.8727618 L8.55910163,20.8727618 C8.18121395,20.8727618 7.83598031,21.1013277 7.67081713,21.460431 C7.50589057,21.8195344 7.54990253,22.2476577 7.7834499,22.5614981 L11.6567395,27.7589945 C11.5675324,27.878529 11.4731197,28.0080663 11.3772872,28.1466061 C11.170005,28.4474428 10.9570439,28.7825392 10.7798129,29.1416426 C10.6913157,29.3221946 10.611337,29.5089984 10.5474487,29.712557 C10.4847434,29.9168658 10.434106,30.1384296 10.4329229,30.4060067 C10.4352891,31.1059582 10.6863466,31.7566455 11.117238,32.2595403 C11.3337485,32.5103626 11.5990034,32.7241741 11.9068505,32.8762179 C12.2137511,33.0282617 12.5641905,33.1160369 12.9290639,33.1155368 C13.2939373,33.1160369 13.64414,33.0282617 13.9512773,32.8762179 C14.4134029,32.6471519 14.7778031,32.2830471 15.0293338,31.8561742 C15.2803913,31.428301 15.424495,30.9309078 15.4254415,30.4060067 C15.4240218,30.1386797 15.373621,29.9166158 15.3109157,29.7123069 C15.1987562,29.3569546 15.0390354,29.0458651 14.865827,28.7472791 C14.6625674,28.3991789 14.4377751,28.0768361 14.2366452,27.805758 L17.3302604,24.1804642 L20.4238757,27.8062581 C20.3448435,27.9130389 20.2629717,28.0255713 20.1794437,28.1466061 C19.9721615,28.4474428 19.7592004,28.7825392 19.5819694,29.1416426 C19.4934722,29.3221946 19.4132569,29.5089984 19.3493685,29.712557 C19.2866633,29.9168658 19.2362625,30.1384296 19.2348428,30.4060067 C19.2374456,31.1059582 19.4885031,31.7566455 19.9193945,32.2595403 C20.1356683,32.5103626 20.4011598,32.7241741 20.709007,32.8762179 C21.0159076,33.0282617 21.366347,33.1160369 21.7312204,33.1155368 C22.0960938,33.1160369 22.4462965,33.0282617 22.7534338,32.8762179 C23.2155594,32.6471519 23.5799595,32.2830471 23.8314903,31.8561742 C24.0825478,31.428301 24.2266515,30.9309078 24.2273614,30.4060067 C24.2261782,30.1386797 24.1757774,29.9166158 24.1130722,29.7123069 C24.0006761,29.3569546 23.8411919,29.0458651 23.6679835,28.7472791 C23.4521829,28.3781728 23.2136664,28.0395753 23.0035448,27.7589945 L26.8768344,22.5614981 C27.1106184,22.2476577 27.1543937,21.8195344 26.9892305,21.460431 C26.8245406,21.1013277 26.4790703,20.8727618 26.1011826,20.8727618 L26.1011826,20.8727618 Z" id="Fill-26"></path>
            </g>
        </g>
    </g>
</svg>