<svg width="35" height="41" viewBox="0 0 35 41" version="1.1" xmlns="http://www.w3.org/2000/svg" xmlns:xlink="http://www.w3.org/1999/xlink">
<g id="Canvas" transform="translate(1575 -919)">
<g id="logo">
<g id="logo">
<g id="Fill 25">
<use xlink:href="#path0_fill" transform="translate(-1575 919)" fill="#FFFFFF"/>
</g>
<g id="Fill 26">
<use xlink:href="#path1_fill" transform="translate(-1567.43 926.002)" fill="#FFFFFF"/>
</g>
</g>
</g>
</g>
<defs>
<path id="path0_fill" fill-rule="evenodd" d="M 32.4643 27.3039C 32.4645 27.5474 32.4217 27.8385 32.3341 28.1424C 32.2042 28.5982 31.9735 29.0804 31.69 29.4862C 31.408 29.8939 31.0717 30.2217 30.771 30.403L 18.9121 37.6388C 18.7129 37.7609 18.4528 37.8674 18.1601 37.9389C 17.8677 38.0112 17.5435 38.0495 17.2193 38.0495C 16.8949 38.0495 16.5707 38.0112 16.2783 37.9389C 15.9856 37.8674 15.7258 37.7609 15.5263 37.6388L 3.66718 30.403C 3.46724 30.2815 3.25025 30.0969 3.0451 29.8646C 2.73654 29.5178 2.45685 29.0656 2.2659 28.6032C 2.07305 28.1414 1.97248 27.6695 1.97414 27.3039L 1.97414 12.832C 1.97367 12.5884 2.0165 12.2973 2.10428 11.9937C 2.23419 11.5376 2.4649 11.0557 2.74837 10.6496C 3.03043 10.2422 3.36667 9.91411 3.66718 9.73306L 15.5263 2.49698C 15.7258 2.37494 15.9856 2.26866 16.2783 2.19689C 16.5707 2.12462 16.8949 2.08636 17.2193 2.08661C 17.5435 2.08636 17.8677 2.12462 18.1601 2.19689C 18.4528 2.26866 18.7129 2.37494 18.9121 2.49698L 30.7712 9.73306C 30.9709 9.85435 31.1881 10.0391 31.3931 10.2712C 31.7019 10.6183 31.9815 11.0702 32.1723 11.5328C 32.3654 11.9947 32.4659 12.4666 32.4643 12.832L 32.4643 27.3039ZM 34.2233 11.3878C 34.0203 10.6836 33.6949 10.0101 33.2801 9.41321C 32.8639 8.81779 32.3599 8.29514 31.7582 7.92603L 19.8993 0.690199C 19.4973 0.445378 19.0605 0.27658 18.6083 0.164797C 18.1559 0.0535154 17.6876 0 17.2193 0C 16.7508 0 16.2825 0.0535154 15.8301 0.164797C 15.3779 0.27658 14.9409 0.445378 14.5391 0.690199L 2.68 7.92603C 2.27845 8.1716 1.92186 8.48694 1.60407 8.84505C 1.12869 9.38295 0.739448 10.0176 0.45763 10.6956C 0.177704 11.3743 0.00165636 12.0967 0 12.8319L 0 27.3039C 0.000473247 27.7943 0.080452 28.2784 0.215091 28.748C 0.418114 29.4522 0.743471 30.1257 1.15827 30.7226C 1.57449 31.3183 2.0785 31.8407 2.68 32.2098L 14.5391 39.4459C 14.9409 39.6904 15.3779 39.8595 15.8301 39.971C 16.2825 40.0823 16.7508 40.1358 17.2193 40.1361C 17.6876 40.1358 18.1559 40.0823 18.6083 39.971C 19.0605 39.8595 19.4973 39.6904 19.8993 39.4459L 31.7582 32.2098C 32.1597 31.9645 32.5166 31.6489 32.8343 31.2908C 33.3097 30.7531 33.699 30.1184 33.9808 29.4405C 34.2607 28.7618 34.4368 28.0391 34.4384 27.3039L 34.4384 12.8319C 34.4382 12.3418 34.358 11.8574 34.2233 11.3878Z"/>
<path id="path1_fill" fill-rule="evenodd" d="M 14.3459 23.9837C 14.288 24.0119 14.2312 24.0267 14.1592 24.0269C 14.0871 24.0267 14.0303 24.0119 13.9725 23.9837C 13.8874 23.9424 13.7996 23.8616 13.7355 23.7524C 13.6727 23.6473 13.6401 23.5225 13.6387 23.4145C 13.6432 23.394 13.6548 23.351 13.6765 23.2952C 13.7269 23.1599 13.8301 22.9581 13.9562 22.7521C 14.0196 22.6475 14.0892 22.5423 14.16 22.4382C 14.3166 22.6685 14.4652 22.9119 14.5615 23.1109C 14.6129 23.2157 14.6488 23.3072 14.6668 23.366C 14.6741 23.39 14.6782 23.4063 14.6801 23.4163C 14.6789 23.5606 14.6143 23.7361 14.5118 23.8519C 14.4602 23.9117 14.403 23.9557 14.3459 23.9837ZM 9.74789 14.051C 9.72305 14.0218 9.69915 13.9978 9.67217 13.9723L 9.67264 13.9718L 9.66886 13.9683C 9.64638 13.9465 9.53422 13.8245 9.44738 13.6714C 9.40384 13.5954 9.36598 13.5126 9.34161 13.4341C 9.317 13.3548 9.30517 13.2813 9.30493 13.21C 9.30493 13.1333 9.32055 13.0483 9.35391 12.9545C 9.40242 12.8149 9.49494 12.6639 9.57516 12.5606C 9.61491 12.5088 9.6504 12.4683 9.67241 12.4451L 9.6937 12.4228L 9.69465 12.4216C 9.71524 12.4016 9.73748 12.3783 9.7583 12.3546C 9.77889 12.3783 9.80089 12.4016 9.82172 12.4216L 9.82148 12.4216L 9.84136 12.4421C 9.88703 12.4898 9.99848 12.6219 10.0806 12.7739C 10.1222 12.8499 10.1568 12.9297 10.1788 13.0042C 10.201 13.0788 10.2112 13.1468 10.2112 13.21C 10.2112 13.2908 10.1956 13.3756 10.1636 13.4669C 10.1173 13.6027 10.0297 13.746 9.95423 13.8435C 9.9166 13.8925 9.88348 13.93 9.86336 13.9515L 9.84443 13.971L 9.84491 13.9715C 9.81769 13.9973 9.79332 14.0218 9.76848 14.051L 9.7583 14.063L 9.74789 14.051ZM 9.8452 13.9713L 9.84473 13.971L 9.8452 13.9713ZM 5.54382 23.9837C 5.48584 24.0119 5.42929 24.0267 5.35712 24.0269C 5.28519 24.0267 5.2284 24.0119 5.17042 23.9837C 5.08524 23.9424 4.99745 23.8616 4.93333 23.7524C 4.87086 23.6473 4.83797 23.5225 4.83655 23.4145C 4.84128 23.394 4.85287 23.351 4.87441 23.2952C 4.92505 23.1599 5.02798 22.9581 5.1541 22.7521C 5.21751 22.6475 5.28708 22.5423 5.35783 22.4382C 5.51447 22.6685 5.66307 22.9119 5.75962 23.1109C 5.81073 23.2157 5.84693 23.3072 5.86468 23.366C 5.87225 23.39 5.87603 23.4063 5.87793 23.4163C 5.87698 23.5606 5.81238 23.7361 5.70993 23.8519C 5.6581 23.9117 5.60084 23.9557 5.54382 23.9837ZM 5.17042 2.12963C 5.22839 2.10162 5.28518 2.08686 5.35711 2.08636C 5.42928 2.08686 5.48584 2.10162 5.54381 2.12963C 5.62899 2.17114 5.71678 2.25191 5.7809 2.36094C 5.84337 2.46622 5.87626 2.59101 5.87768 2.69904C 5.87295 2.7193 5.86159 2.76256 5.83982 2.81808C 5.78919 2.95361 5.68625 3.15542 5.56013 3.36148C 5.49672 3.46576 5.42715 3.57104 5.35664 3.67532C 5.19976 3.44501 5.05116 3.20144 4.95485 3.00238C 4.9035 2.89785 4.8673 2.80607 4.84955 2.7473C 4.84222 2.72355 4.83843 2.70729 4.8363 2.69704C 4.83749 2.55275 4.90208 2.3772 5.00431 2.26167C 5.05589 2.20165 5.11339 2.15789 5.17042 2.12963ZM 13.9725 2.12963C 14.0303 2.10162 14.0871 2.08686 14.1592 2.08636C 14.2312 2.08686 14.288 2.10162 14.3459 2.12963C 14.4311 2.17114 14.5189 2.25191 14.583 2.36094C 14.6455 2.46622 14.6784 2.59101 14.6796 2.69879C 14.6751 2.7193 14.6635 2.76256 14.6419 2.81808C 14.5913 2.95361 14.4884 3.15542 14.3623 3.36148C 14.2988 3.46576 14.2293 3.57104 14.1585 3.67532C 14.0019 3.44501 13.8533 3.20144 13.7567 3.00238C 13.7056 2.89785 13.6694 2.80607 13.6517 2.7473C 13.6441 2.72355 13.6403 2.70729 13.6382 2.69704C 13.6394 2.55275 13.704 2.3772 13.8064 2.26167C 13.858 2.20165 13.9153 2.15789 13.9725 2.12963ZM 18.5292 13.8707L 15.5726 13.8707C 15.0274 13.8707 14.5854 14.3379 14.5854 14.914C 14.5854 15.4902 15.0274 15.9571 15.5726 15.9571L 16.4955 15.9571L 14.1082 19.1608L 11.0874 15.6207L 11.2064 15.4815C 11.2978 15.3899 11.4779 15.1961 11.6681 14.9C 11.7902 14.7087 11.9161 14.4737 12.0152 14.1916C 12.1139 13.91 12.1856 13.5777 12.1856 13.2101C 12.1854 12.8379 12.1113 12.5034 12.0103 12.2195C 11.8574 11.7931 11.6475 11.4736 11.4757 11.248C 11.3593 11.0962 11.2618 10.9912 11.1989 10.9274L 11.059 10.7551L 14.106 7.00252L 16.5101 10.4027L 15.5726 10.4027C 15.0274 10.4027 14.5854 10.8699 14.5854 11.446C 14.5854 12.0222 15.0274 12.4893 15.5726 12.4893L 18.4803 12.4893C 18.8548 12.4893 19.1949 12.2675 19.3626 11.9134C 19.5306 11.5596 19.4951 11.1387 19.271 10.8216L 15.4188 5.37355C 15.5118 5.24976 15.6107 5.11372 15.711 4.96893C 15.9183 4.6681 16.1311 4.33275 16.3083 3.97365C 16.397 3.79334 16.4772 3.60654 16.5411 3.40273C 16.6036 3.19867 16.6542 2.97686 16.6554 2.70953C 16.653 2.00933 16.4018 1.35864 15.9709 0.855999C 15.7546 0.604926 15.4893 0.391365 15.1815 0.239321C 14.8743 0.0870272 14.5241 -0.000498012 14.1593 2.13183e-06C 13.7944 -0.000498012 13.444 0.0870272 13.1371 0.239321C 12.6749 0.468137 12.3103 0.832492 12.059 1.25911C 11.8079 1.68699 11.6636 2.18438 11.6629 2.70953C 11.6643 2.97686 11.7147 3.19867 11.7774 3.40298C 11.8896 3.75833 12.0493 4.06942 12.2223 4.36826C 12.4303 4.72411 12.6603 5.05246 12.8647 5.32729L 9.75831 9.15314L 6.65121 5.32679C 6.73426 5.21525 6.82087 5.09647 6.90889 4.96893C 7.11641 4.6681 7.3289 4.33275 7.50636 3.97365C 7.59486 3.79334 7.67508 3.60654 7.73896 3.40273C 7.80167 3.19867 7.85207 2.97686 7.85349 2.70953C 7.85089 2.00933 7.59983 1.35864 7.16894 0.855999C 6.95243 0.604926 6.68717 0.391365 6.37933 0.239321C 6.07219 0.0870272 5.72199 -0.000498012 5.35711 2.13183e-06C 4.99224 -0.000498012 4.6418 0.0870272 4.3349 0.239321C 3.87277 0.468137 3.50814 0.832492 3.25684 1.25911C 3.00579 1.68699 2.86145 2.18438 2.86097 2.70953C 2.86215 2.97686 2.91256 3.19867 2.97526 3.40298C 3.08766 3.75833 3.24714 4.06942 3.42011 4.36826C 3.64065 4.74487 3.88437 5.08972 4.09757 5.37355L 0.245336 10.8216C 0.0212536 11.1387 -0.01424 11.5596 0.153526 11.9134C 0.321529 12.2675 0.661557 12.4893 1.03613 12.4893L 3.94376 12.4893C 4.48894 12.4893 4.93095 12.0222 4.93095 11.446C 4.93095 10.8699 4.48894 10.4027 3.94376 10.4027L 3.00602 10.4027L 5.41035 7.00252L 8.45735 10.7551L 8.31988 10.9244C 8.2257 11.0197 8.04752 11.215 7.85964 11.5053C 7.73589 11.6986 7.60764 11.9352 7.50613 12.2195C 7.40509 12.5034 7.33079 12.8379 7.33079 13.2101C 7.33079 13.5777 7.40249 13.91 7.50116 14.1916C 7.6507 14.615 7.85704 14.9318 8.02646 15.1549C 8.14596 15.3107 8.24676 15.4179 8.30875 15.48L 8.42896 15.6207L 5.40822 19.1608L 3.02093 15.9571L 3.94376 15.9571C 4.48894 15.9571 4.93095 15.4902 4.93095 14.914C 4.93095 14.3379 4.48894 13.8707 3.94376 13.8707L 0.987151 13.8707C 0.609263 13.8707 0.264029 14.0993 0.0988661 14.4584C -0.0660605 14.8175 -0.0220485 15.2456 0.211499 15.5595L 4.08479 20.757C 3.99558 20.8765 3.90117 21.0061 3.80534 21.1446C 3.59805 21.4454 3.38509 21.7805 3.20786 22.1396C 3.11936 22.3202 3.03939 22.507 2.9755 22.7105C 2.91279 22.9149 2.86215 23.1364 2.86097 23.404C 2.86334 24.1039 3.1144 24.7546 3.54529 25.2575C 3.7618 25.5083 4.02705 25.7222 4.3349 25.8742C 4.6418 26.0262 4.99224 26.114 5.35711 26.1135C 5.72199 26.114 6.07219 26.0262 6.37933 25.8742C 6.84145 25.6451 7.20585 25.281 7.45738 24.8542C 7.70844 24.4263 7.85254 23.9289 7.85349 23.404C 7.85207 23.1367 7.80167 22.9146 7.73896 22.7103C 7.6268 22.3549 7.46708 22.0438 7.29388 21.7453C 7.09062 21.3972 6.86582 21.0748 6.66469 20.8037L 9.75831 17.1784L 12.8519 20.8042C 12.7729 20.911 12.691 21.0236 12.6075 21.1446C 12.4002 21.4454 12.1872 21.7805 12.01 22.1396C 11.9215 22.3202 11.8413 22.507 11.7774 22.7105C 11.7147 22.9149 11.6643 23.1364 11.6629 23.404C 11.6655 24.1039 11.9166 24.7546 12.3474 25.2575C 12.5637 25.5083 12.8292 25.7222 13.1371 25.8742C 13.444 26.0262 13.7944 26.114 14.1593 26.1135C 14.5241 26.114 14.8743 26.0262 15.1815 25.8742C 15.6436 25.6451 16.008 25.281 16.2595 24.8542C 16.5106 24.4263 16.6547 23.9289 16.6554 23.404C 16.6542 23.1367 16.6038 22.9146 16.5411 22.7103C 16.4287 22.3549 16.2692 22.0438 16.096 21.7453C 15.8802 21.3762 15.6417 21.0376 15.4316 20.757L 19.3049 15.5595C 19.5387 15.2456 19.5824 14.8175 19.4173 14.4584C 19.2526 14.0993 18.9071 13.8707 18.5292 13.8707Z"/>
</defs>
</svg>
